<svg width="9" height="9" viewBox="0 0 9 9" fill="none" xmlns="http://www.w3.org/2000/svg">
<path d="M5.94376 2.84999C5.59247 2.84879 5.2444 2.91686 4.91944 3.05032C4.59449 3.18378 4.29904 3.38 4.05001 3.62776C3.80097 3.87552 3.60323 4.16996 3.4681 4.49422C3.33298 4.81848 3.26311 5.1662 3.26251 5.51749V8.21249C3.26251 8.32189 3.30597 8.42682 3.38333 8.50417C3.46069 8.58153 3.56561 8.62499 3.67501 8.62499H4.63751C4.74691 8.62499 4.85183 8.58153 4.92919 8.50417C5.00655 8.42682 5.05001 8.32189 5.05001 8.21249V5.51749C5.04992 5.39255 5.07616 5.26899 5.12703 5.15487C5.17789 5.04075 5.25223 4.93863 5.34521 4.85517C5.43818 4.77171 5.5477 4.70878 5.66663 4.67048C5.78556 4.63219 5.91122 4.61938 6.03543 4.63291C6.25818 4.66097 6.46289 4.7698 6.61074 4.93876C6.75858 5.10772 6.83927 5.32507 6.83751 5.54958V8.21249C6.83751 8.32189 6.88097 8.42682 6.95833 8.50417C7.03569 8.58153 7.14061 8.62499 7.25001 8.62499H8.21251C8.32191 8.62499 8.42684 8.58153 8.50419 8.50417C8.58155 8.42682 8.62501 8.32189 8.62501 8.21249V5.51749C8.62441 5.1662 8.55455 4.81848 8.41942 4.49422C8.28429 4.16996 8.08656 3.87552 7.83752 3.62776C7.58848 3.38 7.29303 3.18378 6.96808 3.05032C6.64313 2.91686 6.29505 2.84879 5.94376 2.84999Z" fill="#AAAAAA"/>
<path d="M2.025 3.26245H0.7875C0.559683 3.26245 0.375 3.44713 0.375 3.67495V8.21245C0.375 8.44027 0.559683 8.62495 0.7875 8.62495H2.025C2.25282 8.62495 2.4375 8.44027 2.4375 8.21245V3.67495C2.4375 3.44713 2.25282 3.26245 2.025 3.26245Z" fill="#AAAAAA"/>
<path d="M1.40625 2.4375C1.97579 2.4375 2.4375 1.97579 2.4375 1.40625C2.4375 0.836706 1.97579 0.375 1.40625 0.375C0.836706 0.375 0.375 0.836706 0.375 1.40625C0.375 1.97579 0.836706 2.4375 1.40625 2.4375Z" fill="#AAAAAA"/>
</svg>
