<svg width="5" height="9" viewBox="0 0 5 9" fill="none" xmlns="http://www.w3.org/2000/svg">
<path d="M5 0.252873C5 0.186591 4.97606 0.123023 4.93343 0.0761547C4.89081 0.0292861 4.833 0.00295544 4.77273 0.00295544H3.63636C3.06415 -0.0283888 2.50391 0.19059 2.07806 0.612045C1.6522 1.0335 1.39536 1.62317 1.36364 2.25222V3.60177H0.227273C0.166996 3.60177 0.109189 3.6281 0.0665667 3.67497C0.0239448 3.72184 0 3.78541 0 3.85169V5.15126C0 5.21755 0.0239448 5.28111 0.0665667 5.32798C0.109189 5.37485 0.166996 5.40118 0.227273 5.40118H1.36364V8.75008C1.36364 8.81636 1.38758 8.87993 1.4302 8.9268C1.47282 8.97367 1.53063 9 1.59091 9H2.95455C3.01482 9 3.07263 8.97367 3.11525 8.9268C3.15787 8.87993 3.18182 8.81636 3.18182 8.75008V5.40118H4.37273C4.42327 5.40198 4.47261 5.38423 4.51295 5.35073C4.55329 5.31724 4.58232 5.26992 4.59546 5.21624L4.92273 3.91667C4.93177 3.87974 4.93299 3.84103 4.92628 3.8035C4.91958 3.76598 4.90513 3.73065 4.88405 3.70023C4.86298 3.66981 4.83583 3.64511 4.80471 3.62804C4.77359 3.61098 4.73932 3.60199 4.70455 3.60177H3.18182V2.25222C3.19312 2.1285 3.24596 2.01385 3.33001 1.93067C3.41406 1.84749 3.52329 1.80174 3.63636 1.80236H4.77273C4.833 1.80236 4.89081 1.77603 4.93343 1.72916C4.97606 1.6823 5 1.61873 5 1.55245V0.252873Z" fill="white"/>
</svg>
