<svg width="11" height="11" fill="none" xmlns="http://www.w3.org/2000/svg"><path d="M6.944 3.85a2.672 2.672 0 00-2.681 2.667v2.695a.412.412 0 00.412.413h.963a.412.412 0 00.412-.413V6.517a.89.89 0 01.985-.884.917.917 0 01.803.917v2.662a.412.412 0 00.412.413h.963a.412.412 0 00.412-.413V6.517A2.672 2.672 0 006.944 3.85zm-3.919.412H1.788a.412.412 0 00-.413.413v4.537c0 .228.185.413.413.413h1.237a.412.412 0 00.413-.413V4.675a.412.412 0 00-.413-.413zm-.619-.824a1.031 1.031 0 100-2.063 1.031 1.031 0 000 2.063z" fill="#AAA"/></svg>