<svg width="9" height="9" fill="none" xmlns="http://www.w3.org/2000/svg"><path d="M5.944 2.85a2.672 2.672 0 00-2.681 2.667v2.695a.412.412 0 00.412.413h.963a.412.412 0 00.412-.413V5.517a.89.89 0 01.985-.884.917.917 0 01.803.917v2.662a.412.412 0 00.412.413h.963a.412.412 0 00.412-.413V5.517A2.672 2.672 0 005.944 2.85zm-3.919.412H.788a.412.412 0 00-.413.413v4.537c0 .228.185.413.412.413h1.238a.412.412 0 00.413-.413V3.675a.412.412 0 00-.413-.413zm-.619-.824a1.031 1.031 0 100-2.063 1.031 1.031 0 000 2.063z" fill="#AAA"/></svg>