<svg width="5" height="9" fill="none" xmlns="http://www.w3.org/2000/svg"><path d="M5 .253a.263.263 0 00-.067-.177.217.217 0 00-.16-.073H3.636a2.053 2.053 0 00-1.558.609 2.484 2.484 0 00-.714 1.64v1.35H.227a.217.217 0 00-.16.073.263.263 0 00-.067.177v1.3c0 .066.024.13.067.176.042.047.1.073.16.073h1.137v3.35c0 .065.024.129.066.176.043.047.1.073.16.073h1.365c.06 0 .118-.026.16-.073a.263.263 0 00.067-.177V5.401h1.19c.051.001.1-.017.141-.05a.249.249 0 00.082-.135l.328-1.3a.274.274 0 00-.039-.216.234.234 0 00-.08-.072.21.21 0 00-.1-.026H3.183v-1.35a.519.519 0 01.148-.321.432.432 0 01.306-.129h1.137c.06 0 .118-.026.16-.073A.263.263 0 005 1.552v-1.3z" fill="#fff"/></svg>